<svg xmlns="http://www.w3.org/2000/svg" width="1400" height="300" viewBox="0 0 1400 300">
  <rect width="1400" height="300" rx="24" fill="#0f172a"/>
  <g font-family="Arial" text-anchor="middle">
    <rect x="55" y="95" width="190" height="100" rx="18" fill="#1e293b" stroke="#334155"/>
    <text x="150" y="138" font-size="22" font-weight="700" fill="#ffffff">Raw Data</text>
    <text x="150" y="165" font-size="15" fill="#cbd5e1">Customer records</text>

    <rect x="300" y="95" width="190" height="100" rx="18" fill="#1e293b" stroke="#334155"/>
    <text x="395" y="138" font-size="22" font-weight="700" fill="#ffffff">Cleaning</text>
    <text x="395" y="165" font-size="15" fill="#cbd5e1">Missing values and types</text>

    <rect x="545" y="95" width="190" height="100" rx="18" fill="#1e293b" stroke="#334155"/>
    <text x="640" y="138" font-size="22" font-weight="700" fill="#ffffff">Features</text>
    <text x="640" y="165" font-size="15" fill="#cbd5e1">Tenure, spend, services</text>

    <rect x="790" y="95" width="190" height="100" rx="18" fill="#1e293b" stroke="#334155"/>
    <text x="885" y="138" font-size="22" font-weight="700" fill="#ffffff">Models</text>
    <text x="885" y="165" font-size="15" fill="#cbd5e1">LR, RF, XGB, SVM</text>

    <rect x="1035" y="95" width="190" height="100" rx="18" fill="#1e293b" stroke="#334155"/>
    <text x="1130" y="138" font-size="22" font-weight="700" fill="#ffffff">Insights</text>
    <text x="1130" y="165" font-size="15" fill="#cbd5e1">Revenue risk and actions</text>

    <line x1="245" y1="145" x2="300" y2="145" stroke="#38bdf8" stroke-width="4"/>
    <line x1="490" y1="145" x2="545" y2="145" stroke="#38bdf8" stroke-width="4"/>
    <line x1="735" y1="145" x2="790" y2="145" stroke="#38bdf8" stroke-width="4"/>
    <line x1="980" y1="145" x2="1035" y2="145" stroke="#38bdf8" stroke-width="4"/>
  </g>
</svg>