<svg xmlns="http://www.w3.org/2000/svg" width="1400" height="430" viewBox="0 0 1400 430">
  <defs>
    <linearGradient id="bg" x1="0" y1="0" x2="1" y2="1">
      <stop offset="0%" stop-color="#0f172a"/>
      <stop offset="100%" stop-color="#111827"/>
    </linearGradient>
    <linearGradient id="accent" x1="0" y1="0" x2="1" y2="1">
      <stop offset="0%" stop-color="#7c3aed"/>
      <stop offset="100%" stop-color="#06b6d4"/>
    </linearGradient>
  </defs>
  <rect width="1400" height="430" rx="28" fill="url(#bg)"/>
  <circle cx="1220" cy="80" r="180" fill="#1d4ed8" opacity="0.12"/>
  <circle cx="180" cy="360" r="220" fill="#7c3aed" opacity="0.12"/>
  <text x="70" y="92" font-size="24" font-family="Arial" fill="#93c5fd">Data Science Project</text>
  <text x="70" y="160" font-size="46" font-family="Arial" font-weight="700" fill="#ffffff">Customer Churn and Revenue Risk Analytics</text>
  <text x="70" y="212" font-size="22" font-family="Arial" fill="#cbd5e1">Predict churn. Explain risk. Prioritize retention actions.</text>
  <rect x="70" y="260" width="190" height="52" rx="16" fill="url(#accent)"/>
  <text x="165" y="293" text-anchor="middle" font-size="20" font-family="Arial" font-weight="700" fill="#ffffff">Classification</text>
  <rect x="280" y="260" width="190" height="52" rx="16" fill="#172554" stroke="#334155"/>
  <text x="375" y="293" text-anchor="middle" font-size="20" font-family="Arial" font-weight="700" fill="#ffffff">SQL Analysis</text>
  <rect x="490" y="260" width="220" height="52" rx="16" fill="#172554" stroke="#334155"/>
  <text x="600" y="293" text-anchor="middle" font-size="20" font-family="Arial" font-weight="700" fill="#ffffff">Revenue Prioritization</text>
  <rect x="915" y="110" width="360" height="215" rx="24" fill="#111827" stroke="#334155"/>
  <rect x="950" y="150" width="70" height="110" rx="12" fill="#22c55e"/>
  <rect x="1040" y="125" width="70" height="135" rx="12" fill="#38bdf8"/>
  <rect x="1130" y="175" width="70" height="85" rx="12" fill="#f59e0b"/>
  <rect x="1220" y="100" width="70" height="160" rx="12" fill="#ef4444"/>
  <text x="1095" y="305" text-anchor="middle" font-size="18" font-family="Arial" fill="#e5e7eb">Illustrative segment risk profile</text>
</svg>